<svg id="Component_75_1" data-name="Component 75 – 1" xmlns="http://www.w3.org/2000/svg" width="94" height="48.5" viewBox="0 0 94 48.5">
  <g id="person" transform="translate(23 -1.5)">
    <path id="Path_287" data-name="Path 287" d="M27,45H21a3,3,0,0,1-3-3V31.5a3,3,0,0,1-3-3v-9A4.5,4.5,0,0,1,19.5,15h9A4.5,4.5,0,0,1,33,19.5v9a3,3,0,0,1-3,3V42A3,3,0,0,1,27,45ZM19.5,18A1.41,1.41,0,0,0,18,19.5v9h3V42h6V28.5h3v-9A1.41,1.41,0,0,0,28.5,18Z" fill="#959595"/>
    <path id="Path_288" data-name="Path 288" d="M24,13.5a6,6,0,1,1,6-6A6,6,0,0,1,24,13.5Zm0-9a3,3,0,1,0,3,3A3,3,0,0,0,24,4.5Z" fill="#959595"/>
  </g>
  <g id="person-2" data-name="person" transform="translate(42 -1.5)">
    <path id="Path_287-2" data-name="Path 287" d="M27,45H21a3,3,0,0,1-3-3V31.5a3,3,0,0,1-3-3v-9A4.5,4.5,0,0,1,19.5,15h9A4.5,4.5,0,0,1,33,19.5v9a3,3,0,0,1-3,3V42A3,3,0,0,1,27,45ZM19.5,18A1.41,1.41,0,0,0,18,19.5v9h3V42h6V28.5h3v-9A1.41,1.41,0,0,0,28.5,18Z" fill="#959595"/>
    <path id="Path_288-2" data-name="Path 288" d="M24,13.5a6,6,0,1,1,6-6A6,6,0,0,1,24,13.5Zm0-9a3,3,0,1,0,3,3A3,3,0,0,0,24,4.5Z" fill="#959595"/>
  </g>
  <g id="person-3" data-name="person" transform="translate(61 -1.5)">
    <path id="Path_287-3" data-name="Path 287" d="M27,45H21a3,3,0,0,1-3-3V31.5a3,3,0,0,1-3-3v-9A4.5,4.5,0,0,1,19.5,15h9A4.5,4.5,0,0,1,33,19.5v9a3,3,0,0,1-3,3V42A3,3,0,0,1,27,45ZM19.5,18A1.41,1.41,0,0,0,18,19.5v9h3V42h6V28.5h3v-9A1.41,1.41,0,0,0,28.5,18Z" fill="#959595"/>
    <path id="Path_288-3" data-name="Path 288" d="M24,13.5a6,6,0,1,1,6-6A6,6,0,0,1,24,13.5Zm0-9a3,3,0,1,0,3,3A3,3,0,0,0,24,4.5Z" fill="#959595"/>
  </g>
  <g id="person-4" data-name="person" transform="translate(4 -1.5)">
    <path id="Path_287-4" data-name="Path 287" d="M27,45H21a3,3,0,0,1-3-3V31.5a3,3,0,0,1-3-3v-9A4.5,4.5,0,0,1,19.5,15h9A4.5,4.5,0,0,1,33,19.5v9a3,3,0,0,1-3,3V42A3,3,0,0,1,27,45ZM19.5,18A1.41,1.41,0,0,0,18,19.5v9h3V42h6V28.5h3v-9A1.41,1.41,0,0,0,28.5,18Z" fill="#959595"/>
    <path id="Path_288-4" data-name="Path 288" d="M24,13.5a6,6,0,1,1,6-6A6,6,0,0,1,24,13.5Zm0-9a3,3,0,1,0,3,3A3,3,0,0,0,24,4.5Z" fill="#959595"/>
  </g>
  <g id="person-5" data-name="person" transform="translate(-15 -1.5)">
    <path id="Path_287-5" data-name="Path 287" d="M27,45H21a3,3,0,0,1-3-3V31.5a3,3,0,0,1-3-3v-9A4.5,4.5,0,0,1,19.5,15h9A4.5,4.5,0,0,1,33,19.5v9a3,3,0,0,1-3,3V42A3,3,0,0,1,27,45ZM19.5,18A1.41,1.41,0,0,0,18,19.5v9h3V42h6V28.5h3v-9A1.41,1.41,0,0,0,28.5,18Z" fill="#959595"/>
    <path id="Path_288-5" data-name="Path 288" d="M24,13.5a6,6,0,1,1,6-6A6,6,0,0,1,24,13.5Zm0-9a3,3,0,1,0,3,3A3,3,0,0,0,24,4.5Z" fill="#959595"/>
  </g>
  <g id="person-6" data-name="person" transform="translate(23 3.5)">
    <path id="Path_287-6" data-name="Path 287" d="M27,45H21a3,3,0,0,1-3-3V31.5a3,3,0,0,1-3-3v-9A4.5,4.5,0,0,1,19.5,15h9A4.5,4.5,0,0,1,33,19.5v9a3,3,0,0,1-3,3V42A3,3,0,0,1,27,45ZM19.5,18A1.41,1.41,0,0,0,18,19.5v9h3V42h6V28.5h3v-9A1.41,1.41,0,0,0,28.5,18Z" fill="#ffd800"/>
    <path id="Path_288-6" data-name="Path 288" d="M24,13.5a6,6,0,1,1,6-6A6,6,0,0,1,24,13.5Zm0-9a3,3,0,1,0,3,3A3,3,0,0,0,24,4.5Z" fill="#ffd800"/>
  </g>
  <g id="person-7" data-name="person" transform="translate(42 3.5)">
    <path id="Path_287-7" data-name="Path 287" d="M27,45H21a3,3,0,0,1-3-3V31.5a3,3,0,0,1-3-3v-9A4.5,4.5,0,0,1,19.5,15h9A4.5,4.5,0,0,1,33,19.5v9a3,3,0,0,1-3,3V42A3,3,0,0,1,27,45ZM19.5,18A1.41,1.41,0,0,0,18,19.5v9h3V42h6V28.5h3v-9A1.41,1.41,0,0,0,28.5,18Z" fill="#fff"/>
    <path id="Path_288-7" data-name="Path 288" d="M24,13.5a6,6,0,1,1,6-6A6,6,0,0,1,24,13.5Zm0-9a3,3,0,1,0,3,3A3,3,0,0,0,24,4.5Z" fill="#fff"/>
  </g>
  <g id="person-8" data-name="person" transform="translate(61 3.5)">
    <path id="Path_287-8" data-name="Path 287" d="M27,45H21a3,3,0,0,1-3-3V31.5a3,3,0,0,1-3-3v-9A4.5,4.5,0,0,1,19.5,15h9A4.5,4.5,0,0,1,33,19.5v9a3,3,0,0,1-3,3V42A3,3,0,0,1,27,45ZM19.5,18A1.41,1.41,0,0,0,18,19.5v9h3V42h6V28.5h3v-9A1.41,1.41,0,0,0,28.5,18Z" fill="#fff"/>
    <path id="Path_288-8" data-name="Path 288" d="M24,13.5a6,6,0,1,1,6-6A6,6,0,0,1,24,13.5Zm0-9a3,3,0,1,0,3,3A3,3,0,0,0,24,4.5Z" fill="#fff"/>
  </g>
  <g id="person-9" data-name="person" transform="translate(4 3.5)">
    <path id="Path_287-9" data-name="Path 287" d="M27,45H21a3,3,0,0,1-3-3V31.5a3,3,0,0,1-3-3v-9A4.5,4.5,0,0,1,19.5,15h9A4.5,4.5,0,0,1,33,19.5v9a3,3,0,0,1-3,3V42A3,3,0,0,1,27,45ZM19.5,18A1.41,1.41,0,0,0,18,19.5v9h3V42h6V28.5h3v-9A1.41,1.41,0,0,0,28.5,18Z" fill="#fff"/>
    <path id="Path_288-9" data-name="Path 288" d="M24,13.5a6,6,0,1,1,6-6A6,6,0,0,1,24,13.5Zm0-9a3,3,0,1,0,3,3A3,3,0,0,0,24,4.5Z" fill="#fff"/>
  </g>
  <g id="person-10" data-name="person" transform="translate(-15 3.5)">
    <path id="Path_287-10" data-name="Path 287" d="M27,45H21a3,3,0,0,1-3-3V31.5a3,3,0,0,1-3-3v-9A4.5,4.5,0,0,1,19.5,15h9A4.5,4.5,0,0,1,33,19.5v9a3,3,0,0,1-3,3V42A3,3,0,0,1,27,45ZM19.5,18A1.41,1.41,0,0,0,18,19.5v9h3V42h6V28.5h3v-9A1.41,1.41,0,0,0,28.5,18Z" fill="#fff"/>
    <path id="Path_288-10" data-name="Path 288" d="M24,13.5a6,6,0,1,1,6-6A6,6,0,0,1,24,13.5Zm0-9a3,3,0,1,0,3,3A3,3,0,0,0,24,4.5Z" fill="#fff"/>
  </g>
</svg>
